<svg width="121" height="45" viewBox="0 0 121 45" fill="none" xmlns="http://www.w3.org/2000/svg">
<path fill-rule="evenodd" clip-rule="evenodd" d="M63.8711 37.6989V26.6192L50.9896 21.6299L57.7505 15.0647L48.8898 7.20572L46.3768 12.0161L46.4732 7.39153L35.2441 10.9769L35.5333 17.0054L37.4404 16.5099L39.4232 37.7815L47.3407 36.6185L47.3269 29.5165L63.8711 37.6989Z" fill="#0B0000"/>
<path fill-rule="evenodd" clip-rule="evenodd" d="M37.3574 12.5243L44.1802 10.4942L44.6002 17.5205L49.6261 10.4667L54.535 15.1394L47.6708 22.3722L61.7984 27.9671V34.4015L45.3851 26.1916L45.4126 34.7938L41.1647 35.3719L39.354 13.8525L37.44 14.348L37.3574 12.5243Z" fill="white"/>
<path fill-rule="evenodd" clip-rule="evenodd" d="M89.0891 8.26477H81.6535L81.4401 9.48285H73.619L69.9631 31.828L78.8858 33.2319L79.3746 30.025L81.7086 34.3261L83.1268 31.5803L83.6501 36.0878L93.7638 37.8702L89.0891 8.26477Z" fill="#0B0000"/>
<path fill-rule="evenodd" clip-rule="evenodd" d="M83.6092 10.3304H87.3958L91.2307 35.2218L85.6402 34.3684L84.1531 24.5206L82.0532 29.9503L78.9 23.1649H78.8656L77.6194 31.0308L72.3801 30.1155L75.4989 11.4796H80.8002L82.1221 18.7055L83.6092 10.3304Z" fill="white"/>
<path fill-rule="evenodd" clip-rule="evenodd" d="M98.5563 10.3021L109.744 12.7589L110.577 16.8879L111.479 13.1649L121.001 15.4703L111.858 43.0043L104.842 40.7953L104.787 38.0357L98.0537 37.0929L100.326 16.8879L98.6389 16.5094L98.5563 10.3021Z" fill="#0B0000"/>
<path fill-rule="evenodd" clip-rule="evenodd" d="M100.546 12.8824L107.837 14.3483L110.295 25.9785L112.808 15.5526L118.357 16.7844L110.543 40.444L106.66 39.281L106.323 24.9806L104.367 36.0121L100.133 35.3446L102.033 15.3117L100.436 14.885L100.546 12.8824Z" fill="white"/>
<path fill-rule="evenodd" clip-rule="evenodd" d="M97.4823 33.913C95.0657 34.8214 92.4977 34.7182 90.4323 33.6171C88.5183 32.6055 87.1827 30.8506 86.6663 28.6829C85.6336 24.3611 88.4908 19.4269 93.0347 17.6858C95.4788 16.7636 98.0675 16.8737 100.147 17.9817C102.04 18.9864 103.362 20.7 103.864 22.8058C104.918 27.1895 102.061 32.1719 97.4823 33.913Z" fill="#0B0000"/>
<path fill-rule="evenodd" clip-rule="evenodd" d="M102.094 23.2058C101.268 19.7374 97.5635 17.9963 93.7631 19.4277C90.0798 20.8385 87.6632 24.823 88.4963 28.2915C89.35 31.87 93.0196 33.6042 96.82 32.1728C100.531 30.7689 102.947 26.7568 102.094 23.2058Z" fill="white"/>
<path fill-rule="evenodd" clip-rule="evenodd" d="M99.3334 23.8172C99.2577 25.7303 97.5916 27.1755 95.5537 27.0929C93.5502 27.0104 92.008 25.4413 92.0837 23.5282C92.1595 21.732 93.8187 20.2868 95.8566 20.3694C97.8669 20.452 99.4091 22.0211 99.3334 23.8172Z" fill="#0B0000"/>
<path fill-rule="evenodd" clip-rule="evenodd" d="M96.744 20.452C95.5254 20.4038 94.5064 21.2434 94.4582 22.3239C94.4169 23.4043 95.367 24.3265 96.5856 24.3746C97.8042 24.4228 98.8232 23.5832 98.8714 22.5028C98.9127 21.4223 97.9626 20.5002 96.744 20.452Z" fill="white"/>
<path fill-rule="evenodd" clip-rule="evenodd" d="M35.8007 36.3226C33.3291 37.3687 30.6509 37.3687 28.4547 36.3158C26.4236 35.3386 24.9572 33.5768 24.3307 31.3402C23.0776 26.8877 25.8384 21.6369 30.4925 19.6343C32.9917 18.5814 35.6906 18.5814 37.9006 19.6481C39.9109 20.6115 41.3567 22.3389 41.9695 24.5066C43.25 29.0211 40.4824 34.3269 35.8007 36.3226Z" fill="#0B0000"/>
<path fill-rule="evenodd" clip-rule="evenodd" d="M40.2002 24.7817C39.1813 21.1756 35.2294 19.5102 31.3051 21.1756C27.4978 22.8135 25.1363 27.0939 26.1553 30.7C27.2018 34.423 31.1261 36.0816 35.0504 34.423C38.8852 32.7852 41.2467 28.4703 40.2002 24.7817Z" fill="white"/>
<path fill-rule="evenodd" clip-rule="evenodd" d="M37.5434 25.4694C37.5434 27.3825 35.9392 28.8897 33.9013 28.8897C31.8979 28.8897 30.2937 27.3825 30.2937 25.4694C30.2937 23.6733 31.8979 22.1593 33.9357 22.1593C35.9392 22.1593 37.5434 23.6664 37.5434 25.4694Z" fill="#0B0000"/>
<path fill-rule="evenodd" clip-rule="evenodd" d="M34.8232 22.2072C33.6046 22.2072 32.6132 23.088 32.6132 24.1685C32.6132 25.2489 33.5977 26.1298 34.8232 26.1298C36.0418 26.1298 37.0332 25.2489 37.0332 24.1685C37.0332 23.088 36.0418 22.2072 34.8232 22.2072Z" fill="white"/>
<path fill-rule="evenodd" clip-rule="evenodd" d="M22.1621 29.6749C27.4772 25.7729 30.0108 19.8752 28.0899 15.4502C27.25 13.5165 25.7766 11.9199 23.9728 10.9151C22.706 10.0756 21.1982 9.54567 19.6147 9.36674C15.7317 8.68545 11.0707 9.38739 6.48546 11.3349C4.79869 12.0506 3.22208 12.8765 1.80381 13.778L0 14.9135L1.08091 16.744L4.44068 22.4215C4.44068 22.4215 5.4734 24.1695 5.48028 24.1626L7.30475 23.2748L7.55949 23.151L15.9107 41.7937L16.7162 43.583L18.5889 42.9843L23.1122 41.5391L25.095 40.906L24.5718 38.8965L22.1621 29.6749Z" fill="black"/>
<path fill-rule="evenodd" clip-rule="evenodd" d="M26.0713 16.3233C25.4034 14.7887 24.2537 13.5844 22.7528 12.7379C21.665 12.0153 20.4051 11.6575 19.2278 11.5267C15.8818 10.9418 11.7165 11.4923 7.33089 13.3504C5.76805 14.0111 4.30847 14.7681 2.96594 15.6214L6.32571 21.2989C7.18631 20.8791 8.11576 20.4318 8.61835 20.1634L17.9059 40.8844L22.4292 39.4393L19.6409 28.7174C24.9904 25.4348 27.6892 20.0464 26.0713 16.3233Z" fill="white"/>
<path fill-rule="evenodd" clip-rule="evenodd" d="M73.5853 21.7744L70.4045 18.9116L71.9674 17.2531L73.3719 15.7597L72.0775 14.17C69.5508 11.0595 65.5094 9.81388 61.2684 10.8393C55.3682 12.2569 52.0428 17.3357 53.3578 22.903C53.8879 25.1465 55.2924 27.0665 57.3234 28.3121C59.7469 29.8055 62.7968 30.2115 65.9019 29.4614C69.179 28.67 71.5887 27.3418 73.7023 25.1603L75.396 23.4123L73.5853 21.7744Z" fill="#0B0000"/>
<path fill-rule="evenodd" clip-rule="evenodd" d="M68.6953 20.4185C67.8967 21.3613 66.981 22.2216 65.3562 22.6138C64.8123 22.7446 64.0756 22.8685 63.6074 22.7859L70.444 15.5118C68.5163 13.1376 65.3493 12.0365 61.7623 12.9036C57.301 13.9772 54.2855 17.6934 55.4008 22.428C56.2958 26.2337 60.5093 28.5666 65.3975 27.3898C68.3579 26.6741 70.4165 25.5317 72.2616 23.6255L68.6953 20.4185Z" fill="white"/>
<path fill-rule="evenodd" clip-rule="evenodd" d="M58.0179 9.64138L66.3898 0L71.0233 6.91619L60.4414 12.6005L58.0179 9.64138Z" fill="#0B0000"/>
<path fill-rule="evenodd" clip-rule="evenodd" d="M66.0312 3.069L68.4822 6.39978L61.4804 9.86821L60.9916 9.13185L66.0312 3.069Z" fill="white"/>
<path fill-rule="evenodd" clip-rule="evenodd" d="M60.8421 20.528C60.3395 19.6127 60.4359 18.4359 61.1863 17.617C61.9092 16.8256 63.0108 16.5985 63.954 16.9632L60.8421 20.528ZM61.1863 17.617C60.4427 18.4359 60.3395 19.6127 60.8421 20.528L63.954 16.9632C63.0108 16.5985 61.9023 16.8256 61.1863 17.617ZM65.6821 16.4265C64.0848 14.9744 61.62 15.0914 60.1674 16.688C58.7147 18.2845 58.8317 20.7482 60.429 22.2003C60.5598 22.3242 60.7044 22.4274 60.8489 22.5237L65.9643 16.7017C65.8679 16.6054 65.7784 16.5159 65.6821 16.4265ZM60.8421 20.528C60.3395 19.6127 60.4359 18.4359 61.1863 17.617C61.9092 16.8256 63.0108 16.5985 63.954 16.9632L60.8421 20.528Z" fill="black"/>
<path fill-rule="evenodd" clip-rule="evenodd" d="M22.5549 19.8678C22.1556 17.6725 19.2984 16.4407 16.4343 17.9753L17.1503 20.494L18.2794 24.2102L18.7958 25.9031C20.9439 24.5474 23.1057 22.9095 22.5549 19.8678ZM19.7115 23.2261C19.4017 22.2076 18.7338 20.0123 18.7338 20.0123C18.7407 20.0261 18.5961 19.5375 18.4447 18.9938C19.0505 18.8837 19.6289 18.9388 20.1108 19.1727C20.3793 19.3035 20.8406 19.5994 20.937 20.1637C21.1642 21.4231 20.7304 22.3246 19.7115 23.2261Z" fill="black"/>
<path fill-rule="evenodd" clip-rule="evenodd" d="M23.7819 44.9247C23.7887 44.9454 23.7956 44.9592 23.8025 44.9798C23.8025 44.9867 23.8094 44.9936 23.8094 45.0004C23.8025 44.9729 23.7887 44.9523 23.7819 44.9247Z" fill="black"/>
<path fill-rule="evenodd" clip-rule="evenodd" d="M113.874 40.5067H115.932V40.8095H115.078V43.0461H114.727V40.8095H113.874V40.5067Z" fill="black"/>
<path fill-rule="evenodd" clip-rule="evenodd" d="M116.237 43.0461V40.5067H116.733L117.462 42.6538L118.185 40.5067H118.674V43.0461H118.35V41.5458C118.35 41.4908 118.35 41.4082 118.357 41.2912C118.357 41.1742 118.357 41.0435 118.357 40.9058L117.634 43.0461H117.297L116.567 40.9058V40.9815C116.567 41.0435 116.567 41.1398 116.574 41.2637C116.574 41.3876 116.581 41.4839 116.581 41.5458V43.0461H116.237Z" fill="black"/>
</svg>
